<?xml version="1.0" encoding="UTF-8" ?>
 <svg viewBox="-0.9723952399818673 -1.7  2.0082904799637347 1.4000000000000001" xmlns="http://www.w3.org/2000/svg" version="1.0" overflow="visible">
  <defs>
   <g id="ID__#42_Model_Space"/>
   <g id="ID__#42_Paper_Space0"/>
   <g id="ID__#42_Paper_Space"/>
  </defs>
  <g id="draft" transform="matrix(1 0 0 -1 0 0)" stroke-width="0.0004260363099954668">
   <g id="ID_0" color="rgb(0,0,0)" stroke="currentColor" fill="none" stroke-width="0.0004260363099954668">
    <path d="M 0.3797205867186854 1.358619488328838 L 0.3797205867186854 1.061999999999999 L 0.1925205867186854 1.061999999999999 L 0.1925205867186853 1.260831006587259 L 0.121757187342095 1.378770005548243 L 0.4218797113414853 1.558843519947877 L 0.4990540746556144 1.430219581090995  z" id="B9"/>
    <path d="M -0.1854275417665238 1.260743217029457 L -0.1854275417665238 1.066205543420397 L -0.3729275417665238 1.066205543420397 L -0.3729275417665239 1.338943943263309 L -0.5046967681229533 1.404828556441524 L -0.4376147287979598 1.538992635091511 L -0.1245652119479893 1.382467876666526  z" id="C3"/>
    <path d="M -0.1328441521722554 0.6408692321326293 L -0.1932898042435652 0.7708579278051788 L 0.179841126326009 0.8960696494728212 L 0.2248376469912352 0.7563240908264645 A 0.18935831564677783 0.18935831564677783 0 0  0 -0.1328441521722554 0.6408692321326293  z" id="CC"/>
    <path d="M 0.6315000000000001 1.7 L -0.5684999999999999 1.699999999999999 A 0.8082904284146053 0.8082904284146053 0 0  1 -0.5680000000000004 0.2999999999999998 L 0.6320000000000001 0.3000000000000005 A 0.8082904284146055 0.8082904284146055 0 0  1 0.6315000000000001 1.7  z" id="D2"/>
   </g>
  </g>
 </svg>